<svg width="35" height="34" viewBox="0 0 35 34" fill="none" xmlns="http://www.w3.org/2000/svg">
<path d="M29.8392 27.3275L25.0225 22.525C26.5766 20.5451 27.4198 18.1003 27.4167 15.5833C27.4167 13.3418 26.752 11.1506 25.5067 9.28688C24.2613 7.42312 22.4913 5.9705 20.4204 5.1127C18.3495 4.25491 16.0708 4.03047 13.8723 4.46777C11.6739 4.90507 9.65446 5.98447 8.06946 7.56946C6.48447 9.15446 5.40507 11.1739 4.96777 13.3723C4.53047 15.5708 4.75491 17.8495 5.6127 19.9204C6.4705 21.9913 7.92312 23.7613 9.78688 25.0067C11.6506 26.252 13.8418 26.9167 16.0833 26.9167C18.6003 26.9198 21.0451 26.0766 23.025 24.5225L27.8275 29.3392C27.9592 29.472 28.1159 29.5773 28.2885 29.6493C28.4612 29.7212 28.6463 29.7582 28.8333 29.7582C29.0204 29.7582 29.2055 29.7212 29.3782 29.6493C29.5508 29.5773 29.7075 29.472 29.8392 29.3392C29.972 29.2075 30.0773 29.0508 30.1493 28.8782C30.2212 28.7055 30.2582 28.5204 30.2582 28.3333C30.2582 28.1463 30.2212 27.9612 30.1493 27.7885C30.0773 27.6159 29.972 27.4592 29.8392 27.3275ZM7.58334 15.5833C7.58334 13.9022 8.08185 12.2588 9.01585 10.861C9.94984 9.46317 11.2774 8.37371 12.8305 7.73036C14.3837 7.08702 16.0928 6.91869 17.7416 7.24666C19.3904 7.57464 20.905 8.38418 22.0937 9.57293C23.2825 10.7617 24.092 12.2762 24.42 13.9251C24.748 15.5739 24.5797 17.283 23.9363 18.8361C23.293 20.3893 22.2035 21.7168 20.8057 22.6508C19.4079 23.5848 17.7645 24.0833 16.0833 24.0833C13.829 24.0833 11.667 23.1878 10.0729 21.5937C8.47887 19.9997 7.58334 17.8377 7.58334 15.5833Z" fill="#8133FF" fill-opacity="1"/>
</svg>
