<svg id="Capa_1" enable-background="new 0 0 512 512" height="512" viewBox="0 0 512 512" width="512" xmlns="http://www.w3.org/2000/svg"><g><path d="m8.937 511.003 30.493-20.105c27.776-18.314 53.629-39.399 77.159-62.929l113.168-113.168-32.557-32.557-113.169 113.168c-23.53 23.53-44.615 49.382-62.929 77.159l-20.105 30.492c-3.442 5.22 2.72 11.382 7.94 7.94z" fill="#dfebfa"/><path d="m51.238 472.57c18.314-27.776 39.399-53.629 62.929-77.159l98.1-98.1-15.068-15.068-113.168 113.168c-23.53 23.53-44.615 49.382-62.929 77.159l-20.105 30.493c-3.442 5.221 2.719 11.382 7.94 7.94l30.003-19.783z" fill="#b1dbfc"/><path d="m452.648 141.181c-8.674-8.674-73.156-73.156-81.829-81.829l-116.104 108.798c13.178 13.178 75.956 75.956 89.135 89.135z" fill="#fec458"/><path d="m409.204 97.736c-17.417-17.417-34.248-34.248-38.385-38.385l-116.104 108.799c5.872 5.872 21.593 21.593 38.385 38.385z" fill="#f9ab49"/><path d="m503.419 97.077-88.496-88.496c-11.442-11.442-30.164-11.442-41.606 0l-7.177 7.177c-11.442 11.442-11.442 30.164 0 41.606l88.495 88.495c11.442 11.442 30.164 11.442 41.606 0l7.177-7.177c11.442-11.441 11.442-30.164.001-41.605z" fill="#ffe181"/><path d="m417.568 69.76 8.78-8.78c8.379-8.379 19.949-11.737 30.891-10.084l-42.316-42.315c-11.442-11.442-30.164-11.442-41.606 0l-7.177 7.177c-11.442 11.442-11.442 30.164 0 41.606l41.078 41.078c-.914-10.271 2.533-20.865 10.35-28.682z" fill="#fec458"/><path d="m341.577 402.41c19.646-36.139 25.405-68.857 26.469-91.675.879-18.868-6.23-37.224-19.586-50.581l-96.614-96.614c-13.356-13.356-31.713-20.465-50.581-19.586-22.819 1.064-55.537 6.823-91.675 26.469-8.391 4.562-10.01 15.939-3.257 22.693l212.551 212.551c6.754 6.754 18.131 5.134 22.693-3.257z" fill="#ffe181"/><path d="m168.532 230.55c35.027-21.83 65.422-30.652 86.297-34.119 13.443-2.232 26.061-.004 36.039 6.132l-39.022-39.022c-13.356-13.356-31.713-20.465-50.581-19.586-22.819 1.064-55.537 6.823-91.675 26.469-8.391 4.562-10.01 15.939-3.257 22.692l54.406 54.406c-1.644-5.596 1.382-12.976 7.793-16.972z" fill="#fec458"/></g></svg>