<svg id="Capa_1" enable-background="new 0 0 494.982 494.982" height="512" viewBox="0 0 494.982 494.982" width="512" xmlns="http://www.w3.org/2000/svg"><g><path d="m2.152 474.996c-3.396 5.159-2.718 11.812 1.649 16.181 4.369 4.368 11.022 5.046 16.183 1.65 33.379-21.971 63.783-40.488 101.729-78.435l38.352-38.352c2.929-2.93 2.929-7.678 0-10.607-2.93-2.928-7.678-2.928-10.607 0l-38.352 38.353c-36.021 36.022-66.054 54.582-90.754 70.841 16.023-24.346 34.617-54.531 70.841-90.755l100.349-100.35 19.915 19.915-37.25 37.249c-2.929 2.93-2.929 7.678 0 10.607 2.93 2.928 7.678 2.928 10.607 0l37.249-37.249 79.063 79.063c9.885 9.882 26.49 7.506 33.165-4.775 19.49-35.851 24.743-68.28 25.717-89.174.884-18.978-6.019-37.569-18.966-51.399l89.811-95.967c13.697 11.335 34.221 10.681 47.143-2.241l6.729-6.729c13.676-13.677 13.676-35.933-.001-49.61l-31.18-31.179c-2.927-2.927-7.676-2.93-10.606.001-2.929 2.929-2.929 7.677.001 10.606l31.179 31.178c7.829 7.83 7.829 20.568.001 28.397l-6.729 6.728c-7.826 7.829-20.567 7.829-28.396 0-8.836-8.836-71.82-71.82-82.96-82.96-7.806-7.806-7.804-20.593.001-28.396l6.728-6.729c7.805-7.805 20.593-7.804 28.396.001l27.031 27.031c2.93 2.928 7.678 2.928 10.607 0 2.929-2.93 2.929-7.678 0-10.607l-27.031-27.03c-13.67-13.67-35.942-13.667-49.61-.001l-6.727 6.728c-12.905 12.905-13.594 33.428-2.242 47.144l-95.967 89.811c-13.828-12.947-32.404-19.842-51.4-18.966-20.892.974-53.322 6.226-89.173 25.716-12.283 6.677-14.655 23.286-4.774 33.166l79.063 79.063-100.351 100.351c-38.07 38.073-56.665 68.656-78.433 101.731zm351.53-400.15 66.449 66.45-89.66 95.806-72.595-72.595zm-241.203 108.399c-2.794-2.792-2.132-7.498 1.331-9.381 33.35-18.13 63.385-23.009 82.708-23.909 15.524-.727 30.756 5.165 41.764 16.172l90.57 90.57c11.002 11.001 16.896 26.224 16.172 41.763-.9 19.323-5.779 49.358-23.91 82.708-1.874 3.443-6.569 4.145-9.38 1.332-4.936-4.936-194.483-194.483-199.255-199.255z"/></g></svg>